PathFileType	4	(X/Y/Z)	pose_F01_0-97.trc
DataRate	CameraRate	NumFrames	NumMarkers	Units	OrigDataRate	OrigDataStartFrame	OrigNumFrames
30	30	7	21	m	30	48	97
Frame#	Time	CHip			RHip			RKnee			RAnkle			RBigToe			RSmallToe			RHeel			LHip			LKnee			LAnkle			LBigToe			LSmallToe			LHeel			Neck			Nose			RShoulder			RElbow			RWrist			LShoulder			LElbow			LWrist			
		X1	Y1	Z1	X2	Y2	Z2	X3	Y3	Z3	X4	Y4	Z4	X5	Y5	Z5	X6	Y6	Z6	X7	Y7	Z7	X8	Y8	Z8	X9	Y9	Z9	X10	Y10	Z10	X11	Y11	Z11	X12	Y12	Z12	X13	Y13	Z13	X14	Y14	Z14	X15	Y15	Z15	X16	Y16	Z16	X17	Y17	Z17	X18	Y18	Z18	X19	Y19	Z19	X20	Y20	Z20	X21	Y21	Z21	
48	1.6	-0.2279185989394096	1.8885405662249999	-0.5267188740016441	-0.24327094401493066	1.8863345078685447	-0.4703359132917105	-0.25821016554879395	1.736779652213551	-0.4199048148615064													-0.21034923002780404	1.8911593096080574	-0.5885704996861985	-0.2149182412906432	1.7424823760226371	-0.5759275940426641	-0.21679953819898817	1.588539823685031	-0.536861348632471	-0.2222303146194692	1.5573321030069676	-0.6189711000787379	-0.21450108950574373	1.568582884763391	-0.6243191318308166	-0.22126081631464847	1.579920400549409	-0.5099281046435503	-0.2161516713394879	2.051131649773555	-0.5273244524435875	-0.19979851943252688	2.1138093866357015	-0.6148374863380858	-0.24000430646785545	2.0549553202027155	-0.45916554268513754	-0.25626631551371104	1.9706424553696331	-0.4145101851825651	-0.2651417828628486	1.8951731110556171	-0.40709396441776546	-0.19142288972684865	2.048183437241099	-0.5984588358129751	-0.17451689845265428	1.9899907521862483	-0.6843828508951469	-0.7117904796471972	1.982983158466919	-0.2008633348651307
49	1.6333333333333333	-0.22789893269302525	1.888494580590574	-0.526743028809658	-0.2432576002160128	1.8863411652216489	-0.47034195342539553	-0.2597887649815243	1.737190848959656	-0.42427280192883826													-0.21041597180474883	1.8922577317457916	-0.5888597067046063	-0.215787547406674	1.7436406056695952	-0.5752248803051992	-0.21702489850304732	1.590193947894496	-0.5366787828517773	-0.22184872963295074	1.560037004597227	-0.615830400985994	-0.21282219376245093	1.5707689794514357	-0.6265405695347341	-0.2216680340855289	1.5822968028767512	-0.5007446256669219	-0.217093989359393	2.0513291775444267	-0.530495893062624	-0.200536947027464	2.1151587300553745	-0.6175962042879355	-0.2409414795189905	2.0551440518214044	-0.46238902891886946	-0.25434151908771285	1.9732225079690557	-0.41705385036726234	-0.26651813911952205	1.8998264628452133	-0.41157676574342017	-0.19420228027556072	2.0449255256844583	-0.5980261985746579	-0.17531215765556066	1.9946309744998156	-0.6881576163317009	-0.454971516848265	2.0206345747004058	-0.45123748512643563
50	1.6666666666666667	-0.22946296683714607	1.8883860973156381	-0.5328449224757101	-0.24377667105883483	1.8850959862127343	-0.47299484658868685	-0.2590951809347768	1.7384579913301776	-0.42740925131332663													-0.21195446081818758	1.891781653524819	-0.5950128659962924	-0.2163764089003235	1.7420446955535083	-0.5827575564654671	-0.21670985884991106	1.5884000722227019	-0.5368937807879887	-0.22033924130907367	1.5575416499278574	-0.612442511427081	-0.2112834015963187	1.5678662139353008	-0.6231885359006608	-0.22195558777032973	1.5820499683571219	-0.5018113015011307	-0.2160838017500384	2.0515317807670552	-0.5357140850976286	-0.20223079647607914	2.1145563323688554	-0.6231238214946886	-0.24087799164388934	2.0549351073339728	-0.46173398602291305	-0.2566053458292066	1.9722001149579753	-0.42348997726648263	-0.267557951929586	1.8952306422104934	-0.4137041542899877	-0.19307000003376434	2.0450001597796006	-0.6033269022127423	-0.1762110123141996	2.0005988360476055	-0.6922786563187955	-0.1981525540493328	2.0582859909338924	-0.7016116353877405
51	1.7	-0.2276093746656517	1.8903382332884537	-0.5356175415090021	-0.2428810186098424	1.8888884675174	-0.47904338337734753	-0.2584015968880292	1.7397251337006994	-0.430545700697815													-0.2119053469483	1.8928058746350012	-0.5952968721150994	-0.21674482512968246	1.7422747594699302	-0.5824601295952871	-0.2195292841037514	1.590002336400175	-0.5384076747005	-0.22265710907966813	1.5590850688162174	-0.6146905679928905	-0.21408932234220834	1.5693775333566864	-0.6248444622510626	-0.22224314145513055	1.5818031338374925	-0.5028779773353397	-0.2129050100416415	2.0529836590263617	-0.5432544805670628	-0.20309745691399647	2.1146228676059113	-0.6253163171050372	-0.23985896772349014	2.0564030596766183	-0.467548645416749	-0.25728267823915385	1.9743571227724783	-0.42678817894217574	-0.26743346200428086	1.8976702688635612	-0.41428775913302984	-0.18955218340247984	2.045978952385026	-0.6102860693156977	-0.17989538326027124	2.006151473731656	-0.6963263301520504	-0.20243797890227055	2.0681348029055693	-0.6985409966082956
52	1.7333333333333334	-0.2260901749048944	1.8942616127465484	-0.541491193577777	-0.24361016789851525	1.8928655841794055	-0.4829562812136036	-0.2583701805472852	1.7391683824742175	-0.43058531752335083													-0.2095485507986832	1.8978353601927949	-0.5981513202291897	-0.21542251994283115	1.7443723717340784	-0.5841572450329131	-0.21612120455306547	1.590786913031616	-0.5378866830112262	-0.21948344446886472	1.5589132607981433	-0.6135665508526692	-0.21105546044924034	1.5695907092934132	-0.6237395119505752	-0.22253069513993137	1.5815562993178631	-0.5039446531695486	-0.21380558200865118	2.051990847129538	-0.5458425029442021	-0.20396388902733792	2.1148782761134473	-0.6283702698515817	-0.2388943874613307	2.0553613032709643	-0.47228851482780787	-0.2553611988767473	1.9728149165371014	-0.42863039553605337	-0.2663496733857881	1.8944007036129002	-0.4186505767067152	-0.1896932498373582	2.044737516246591	-0.6103811925398429	-0.18082438799513081	2.0070691227841553	-0.699765445835756	-0.20163136701237827	2.0689491166183984	-0.6961502482925999
53	1.7666666666666666	-0.2283657446359363	1.8920657644536136	-0.5389924578610985	-0.24295649010491288	1.890480035143843	-0.47936887290003904	-0.25833876420654117	1.7386116312477355	-0.4306249343488867													-0.2098578984881022	1.895390885588258	-0.5979130660496549	-0.21410021475597985	1.7464699839982265	-0.5858543604705392	-0.2176928227629477	1.5884140525803063	-0.5400358522895498	-0.21858063771975553	1.5575024836010631	-0.6184422385951917	-0.21179456052373685	1.56867090982952	-0.6269982111940408	-0.2228182488247322	1.5813094647982338	-0.5050113290037574	-0.21469996983037412	2.0519424798239845	-0.5491397056313603	-0.2048250325165299	2.1162252658110705	-0.6311217146628394	-0.2388726448546047	2.0553193526503453	-0.4723054056501862	-0.25557121420747553	1.9730855516404056	-0.4291746577044892	-0.2674626496645792	1.9015409912770218	-0.415058389156786	-0.18851822268898713	2.044534791632113	-0.6157643677047056	-0.1818432939491253	2.0055716384106916	-0.7029922676322871	-0.2010463111477574	2.0671055789315296	-0.6938001388810136
54	1.8	-0.22714156544647982	1.8930114503445852	-0.5446057640101295	-0.24076161262867812	1.890503276180912	-0.48146043985785547	-0.2586001339533771	1.7372895836072673	-0.4303194308858611													-0.2106477002831622	1.8935483095428778	-0.6009663107130302	-0.2144968572157701	1.7441174686390408	-0.5853343640842319	-0.2169758834437431	1.589612361302799	-0.5368489243872655	-0.2210242387027344	1.5592028566186709	-0.6163936472075778	-0.2122220617232819	1.5705425471098835	-0.6270663966872109	-0.22310580250953302	1.5810626302786044	-0.5060780048379663	-0.2156680782956798	2.051980866775124	-0.5520524594264287	-0.2048122633309152	2.1162905991687864	-0.6311249750572195	-0.24091772494455096	2.054142181149123	-0.47030861511064487	-0.25358123095612467	1.9742161622144239	-0.4312975065046714	-0.26749809111624157	1.8990568969577173	-0.4145879083649572	-0.1884249466521198	2.0458120325392812	-0.6157425696214659	-0.18469682459036707	2.0063749877779955	-0.7037680309908663	-0.20320874699084032	2.065896830327926	-0.6917146640959216
